<?xml version="1.0" encoding="utf-8"?>
<!-- Generator: Adobe Illustrator 26.5.0, SVG Export Plug-In . SVG Version: 6.00 Build 0)  -->
<svg version="1.1" id="Capa_1" xmlns="http://www.w3.org/2000/svg" xmlns:xlink="http://www.w3.org/1999/xlink" x="0px" y="0px"
	 viewBox="0 0 841.9 595.3" style="enable-background:new 0 0 841.9 595.3;" xml:space="preserve">
<style type="text/css">
	.st0{fill:#1D1D1B;}
	.st1{fill:#010000;}
</style>
<g>
	<g>
		<g>
			<g>
				<path class="st0" d="M107.8,299.2v-50.8h48.7v4.2h-43.7v17.9h40.4v4.3h-40.4V295h45.8v4.2H107.8z"/>
				<path class="st0" d="M268.8,291.7c-3.2,4.6-10,8.9-22.5,8.9c-1.4,0-2.9-0.1-4.4-0.1c-2.2-0.1-12.8-0.6-19.2-7.4
					c-1.9-2-3-4.1-4.3-6.5l5.3-2c0.6,1.7,2.1,5.2,6,7.8c3,1.9,8.1,3.7,16.1,3.7c1.9,0,8.9,0,14.5-3.3c3.1-1.9,5.4-4.6,5.4-8.4
					c0-3-1.5-4.6-2.4-5.3c-3.2-2.7-11.9-3.6-15.6-4.1c-3.1-0.4-6.2-0.8-9.2-1.2c-3.2-0.5-7.3-1-10.2-2.5c-1.7-0.9-6-3.5-6-9.4
					c0-4.9,3.2-9,7.3-11.3c4.5-2.5,11-3.5,16.1-3.5c3.1,0,12.7,0.2,20.4,6.5c1.8,1.5,2.9,2.8,3.5,3.5l-4.6,2.4
					c-0.4-0.6-1-1.3-1.5-1.9c-4.7-4.8-11.7-6.2-18.1-6.2c-1.4,0-8.1,0-13.2,3c-1.4,0.9-2.9,2.1-3.7,3.6c-0.3,0.5-0.9,1.9-0.9,3.6
					c0,3.6,3,5,4,5.5c2.2,1,4.6,1.4,9.4,2c11.1,1.6,18.1,2.3,22.6,4.2c4.5,1.9,7.6,5.8,7.6,10.8
					C271.2,285.6,270.9,288.6,268.8,291.7z"/>
				<path class="st0" d="M338.3,299.2v-50.8h5V295h37v4.2H338.3z"/>
				<path class="st0" d="M608.1,299.2l-43.6-44.4v44.4H560v-50.8h4.5l43.6,44.6v-44.6h4.5v50.8H608.1z"/>
				<path class="st0" d="M733.1,281.9c-1.7,6.4-5.8,12-12,14.8c-5.2,2.4-10.5,2.6-16,2.6h-23v-50.8h25.4c1.5,0,3,0,4.5,0.1
					c5,0.4,9.4,1.8,13.4,5.1c8.2,6.8,8.6,17.1,8.6,20.3C734.1,275.2,734,278.4,733.1,281.9z M716.8,254c-3.3-1.2-5.8-1.4-9.3-1.4
					h-20.4V295h16.2c6.8,0,14.5-0.1,19.9-5.2c2.7-2.6,5.8-7.2,5.8-15.6C729,265.7,725.4,257.2,716.8,254z"/>
			</g>
			<polygon class="st0" points="465.3,300.3 446.6,302.9 465.3,231.4 433.4,316.2 			"/>
			<polygon class="st0" points="470.6,300.3 489.2,302.9 470.6,231.4 502.5,316.2 			"/>
			<polygon class="st0" points="467.9,257.9 463.9,281.6 467.9,289.7 472,281.6 			"/>
		</g>
	</g>
	<g>
		<path class="st1" d="M136.1,363.7c-0.4,0-0.5-0.2-0.5-0.5v-11.8c0-0.4,0.2-0.5,0.5-0.5h4.7c1.1,0,2,0.3,2.6,0.9
			c0.6,0.6,0.9,1.5,0.9,2.6v0.6c0,1.1-0.3,2-0.9,2.6c-0.6,0.6-1.4,0.9-2.6,0.9h-4.2v4.8C136.6,363.6,136.4,363.7,136.1,363.7z
			 M136.6,357.3h4.2c0.8,0,1.5-0.2,1.8-0.6c0.4-0.4,0.6-1,0.6-1.8v-0.6c0-0.8-0.2-1.5-0.6-1.8s-1-0.6-1.8-0.6h-4.2V357.3z"/>
		<path class="st1" d="M155.5,363.8c-0.1,0.1-0.3,0.1-0.4,0.1c-0.1,0-0.2-0.1-0.3-0.2l-3.3-5.2h-3.7v4.8c0,0.4-0.2,0.5-0.5,0.5
			c-0.4,0-0.5-0.2-0.5-0.5v-11.8c0-0.4,0.2-0.5,0.5-0.5h4.7c1.1,0,2,0.3,2.6,0.9c0.6,0.6,0.9,1.5,0.9,2.6v0.6c0,1-0.2,1.8-0.7,2.4
			c-0.5,0.6-1.1,0.9-2,1.1l2.9,4.7C155.8,363.4,155.8,363.6,155.5,363.8z M147.8,357.3h4.2c0.8,0,1.5-0.2,1.8-0.6
			c0.4-0.4,0.6-1,0.6-1.8v-0.6c0-0.8-0.2-1.5-0.6-1.8s-1-0.6-1.8-0.6h-4.2V357.3z"/>
		<path class="st1" d="M159.1,363.7c-0.4,0-0.5-0.2-0.5-0.5v-11.8c0-0.4,0.2-0.5,0.5-0.5h7.5c0.4,0,0.5,0.2,0.5,0.5
			c0,0.4-0.2,0.5-0.5,0.5h-7v4.8h4.6c0.4,0,0.5,0.2,0.5,0.5c0,0.4-0.2,0.5-0.5,0.5h-4.6v5h7c0.4,0,0.5,0.2,0.5,0.5
			c0,0.4-0.2,0.5-0.5,0.5H159.1z"/>
		<path class="st1" d="M170.4,363.7c-0.4,0-0.5-0.2-0.5-0.5v-11.8c0-0.4,0.2-0.5,0.5-0.5c0.3,0,0.5,0.1,0.6,0.3l5,7.6l-0.2,0l5-7.6
			c0.1-0.2,0.3-0.3,0.6-0.3c0.3,0,0.5,0.2,0.5,0.5v11.8c0,0.4-0.2,0.5-0.5,0.5c-0.4,0-0.5-0.2-0.5-0.5v-10.8l0.3,0.1l-4.6,7
			c-0.1,0.2-0.4,0.3-0.6,0.3c-0.2,0-0.4-0.1-0.6-0.3l-4.6-7l0.3,0.1v10.6C170.9,363.6,170.7,363.7,170.4,363.7z"/>
		<path class="st1" d="M186,363.7c-0.2,0-0.3,0-0.4-0.1c-0.1-0.1-0.1-0.2-0.1-0.4v-11.8c0-0.2,0-0.3,0.1-0.4
			c0.1-0.1,0.2-0.1,0.4-0.1c0.2,0,0.3,0,0.4,0.1s0.1,0.2,0.1,0.4v11.8c0,0.2,0,0.3-0.1,0.4S186.2,363.7,186,363.7z"/>
		<path class="st1" d="M194.2,363.7c-1.4,0-2.5-0.3-3.2-1c-0.7-0.7-1-1.7-1-3.2V355c0-1.5,0.3-2.5,1-3.2c0.7-0.7,1.7-1,3.1-1h2.4
			c1.4,0,2.5,0.3,3.2,1c0.7,0.7,1,1.7,1,3.2v4.5c0,1.4-0.3,2.5-1,3.2c-0.7,0.7-1.7,1-3.2,1H194.2z M194.2,362.7h2.4
			c0.8,0,1.4-0.1,1.8-0.3c0.5-0.2,0.8-0.5,1-1c0.2-0.5,0.3-1.1,0.3-1.8V355c0-0.8-0.1-1.4-0.3-1.8s-0.5-0.8-1-1
			c-0.5-0.2-1.1-0.3-1.8-0.3h-2.4c-0.8,0-1.4,0.1-1.8,0.3c-0.4,0.2-0.8,0.5-1,1c-0.2,0.5-0.3,1.1-0.3,1.8v4.6c0,0.8,0.1,1.4,0.3,1.8
			c0.2,0.5,0.5,0.8,1,1C192.8,362.6,193.4,362.7,194.2,362.7z"/>
		<path class="st1" d="M207.5,363.7c-1.2,0-2.1-0.3-2.7-0.8s-0.9-1.4-0.9-2.5c0-0.2,0-0.3,0.1-0.4s0.2-0.1,0.4-0.1
			c0.2,0,0.3,0,0.4,0.1c0.1,0.1,0.1,0.2,0.2,0.4c0,0.8,0.2,1.4,0.6,1.8c0.4,0.3,1,0.5,1.9,0.5h2.9c0.9,0,1.6-0.2,2-0.6
			c0.4-0.4,0.6-1,0.6-2c0-0.9-0.2-1.6-0.6-2c-0.4-0.4-1-0.6-2-0.6h-2.7c-1.2,0-2-0.3-2.6-0.8c-0.5-0.5-0.8-1.4-0.8-2.6
			c0-1.2,0.3-2,0.8-2.6c0.5-0.5,1.4-0.8,2.6-0.8h2.8c1.1,0,2,0.2,2.5,0.8c0.5,0.5,0.8,1.3,0.9,2.4c0,0.2,0,0.3-0.1,0.4
			c-0.1,0.1-0.2,0.1-0.4,0.1c-0.2,0-0.3,0-0.4-0.1c-0.1-0.1-0.1-0.2-0.2-0.4c0-0.8-0.2-1.3-0.6-1.6s-0.9-0.5-1.8-0.5h-2.8
			c-0.9,0-1.5,0.2-1.8,0.5c-0.3,0.3-0.5,1-0.5,1.8c0,0.9,0.2,1.5,0.5,1.8c0.3,0.3,1,0.5,1.8,0.5h2.7c1.2,0,2.1,0.3,2.7,0.9
			c0.6,0.6,0.9,1.5,0.9,2.7s-0.3,2.1-0.9,2.7c-0.6,0.6-1.5,0.9-2.7,0.9H207.5z"/>
		<path class="st1" d="M221.5,363.7c-0.3-0.1-0.4-0.4-0.3-0.7l5-11.7c0.1-0.3,0.3-0.4,0.6-0.4h0.1c0.3,0,0.5,0.1,0.6,0.4l5,11.7
			c0.1,0.3,0,0.6-0.3,0.7c-0.3,0.1-0.6,0-0.7-0.3l-1.3-3.1h-6.6l-1.3,3.1C222,363.7,221.8,363.8,221.5,363.7z M223.9,359.2h5.7
			l-2.8-6.7L223.9,359.2z"/>
		<path class="st1" d="M240.3,363.7c-0.4,0-0.5-0.2-0.5-0.5v-11.8c0-0.4,0.2-0.5,0.5-0.5c0.3,0,0.5,0.2,0.5,0.5v11.3h6.1
			c0.4,0,0.5,0.2,0.5,0.5c0,0.4-0.2,0.5-0.5,0.5H240.3z"/>
		<path class="st1" d="M248.8,363.7c-0.3-0.1-0.4-0.4-0.3-0.7l5-11.7c0.1-0.3,0.3-0.4,0.6-0.4h0.1c0.3,0,0.5,0.1,0.6,0.4l5,11.7
			c0.1,0.3,0,0.6-0.3,0.7c-0.3,0.1-0.6,0-0.7-0.3l-1.3-3.1h-6.6l-1.3,3.1C249.4,363.7,249.1,363.8,248.8,363.7z M251.2,359.2h5.7
			l-2.8-6.7L251.2,359.2z"/>
		<path class="st1" d="M271,363.7c-1.4,0-2.5-0.3-3.2-1c-0.7-0.7-1-1.7-1-3.2V355c0-1.5,0.3-2.5,1-3.2c0.7-0.7,1.7-1,3.2-1h2.4
			c1.2,0,2.1,0.3,2.7,0.8c0.6,0.5,0.9,1.3,1,2.5c0,0.2,0,0.3-0.1,0.4s-0.2,0.1-0.4,0.1c-0.3,0-0.5-0.2-0.5-0.5
			c0-0.8-0.3-1.4-0.7-1.7c-0.4-0.3-1.1-0.5-2-0.5H271c-0.8,0-1.4,0.1-1.8,0.3c-0.5,0.2-0.8,0.5-1,1c-0.2,0.5-0.3,1.1-0.3,1.8v4.5
			c0,0.8,0.1,1.4,0.3,1.8c0.2,0.5,0.5,0.8,1,1c0.5,0.2,1.1,0.3,1.8,0.3h2.4c0.9,0,1.6-0.2,2-0.5c0.4-0.3,0.6-0.9,0.7-1.7
			c0-0.4,0.2-0.5,0.5-0.5c0.2,0,0.3,0,0.4,0.1s0.1,0.2,0.1,0.4c-0.1,1.1-0.4,1.9-1,2.5c-0.6,0.5-1.5,0.8-2.7,0.8H271z"/>
		<path class="st1" d="M284.3,363.7c-1.4,0-2.5-0.3-3.2-1c-0.7-0.7-1-1.7-1-3.2V355c0-1.5,0.3-2.5,1-3.2c0.7-0.7,1.7-1,3.1-1h2.4
			c1.4,0,2.5,0.3,3.2,1c0.7,0.7,1,1.7,1,3.2v4.5c0,1.4-0.3,2.5-1,3.2c-0.7,0.7-1.7,1-3.2,1H284.3z M284.3,362.7h2.4
			c0.8,0,1.4-0.1,1.8-0.3c0.5-0.2,0.8-0.5,1-1c0.2-0.5,0.3-1.1,0.3-1.8V355c0-0.8-0.1-1.4-0.3-1.8s-0.5-0.8-1-1
			c-0.5-0.2-1.1-0.3-1.8-0.3h-2.4c-0.8,0-1.4,0.1-1.8,0.3c-0.4,0.2-0.8,0.5-1,1c-0.2,0.5-0.3,1.1-0.3,1.8v4.6c0,0.8,0.1,1.4,0.3,1.8
			c0.2,0.5,0.5,0.8,1,1C282.9,362.6,283.6,362.7,284.3,362.7z"/>
		<path class="st1" d="M294.9,363.7c-0.4,0-0.5-0.2-0.5-0.5v-11.8c0-0.4,0.2-0.5,0.5-0.5c0.3,0,0.5,0.1,0.6,0.3l5,7.6l-0.2,0l5-7.6
			c0.1-0.2,0.3-0.3,0.6-0.3c0.3,0,0.5,0.2,0.5,0.5v11.8c0,0.4-0.2,0.5-0.5,0.5c-0.4,0-0.5-0.2-0.5-0.5v-10.8l0.3,0.1l-4.6,7
			c-0.1,0.2-0.4,0.3-0.6,0.3c-0.2,0-0.4-0.1-0.6-0.3l-4.6-7l0.3,0.1v10.6C295.4,363.6,295.2,363.7,294.9,363.7z"/>
		<path class="st1" d="M314.1,363.7c-1.4,0-2.5-0.3-3.2-1c-0.7-0.7-1-1.7-1-3.2v-8.2c0-0.2,0-0.3,0.1-0.4s0.2-0.1,0.4-0.1
			c0.2,0,0.3,0,0.4,0.1c0.1,0.1,0.1,0.2,0.1,0.4v8.2c0,0.8,0.1,1.4,0.3,1.8c0.2,0.5,0.5,0.8,1,1c0.5,0.2,1.1,0.3,1.8,0.3h2.4
			c0.8,0,1.4-0.1,1.8-0.3s0.8-0.5,1-1c0.2-0.5,0.3-1.1,0.3-1.8v-8.2c0-0.2,0-0.3,0.1-0.4c0.1-0.1,0.2-0.1,0.4-0.1s0.3,0,0.4,0.1
			s0.1,0.2,0.1,0.4v8.2c0,1.4-0.3,2.5-1,3.2c-0.7,0.7-1.7,1-3.2,1H314.1z"/>
		<path class="st1" d="M324.8,363.7c-0.4,0-0.5-0.2-0.5-0.5v-11.8c0-0.4,0.2-0.5,0.5-0.5c0.2,0,0.4,0.1,0.5,0.3l8.5,10.9h-0.2v-10.7
			c0-0.4,0.2-0.5,0.5-0.5c0.3,0,0.5,0.2,0.5,0.5v11.8c0,0.4-0.2,0.5-0.5,0.5c-0.2,0-0.4-0.1-0.5-0.3l-8.5-10.9h0.2v10.7
			C325.4,363.6,325.2,363.7,324.8,363.7z"/>
		<path class="st1" d="M338.9,363.7c-0.2,0-0.3,0-0.4-0.1c-0.1-0.1-0.1-0.2-0.1-0.4v-11.8c0-0.2,0-0.3,0.1-0.4
			c0.1-0.1,0.2-0.1,0.4-0.1c0.2,0,0.3,0,0.4,0.1s0.1,0.2,0.1,0.4v11.8c0,0.2,0,0.3-0.1,0.4S339.1,363.7,338.9,363.7z"/>
		<path class="st1" d="M343.7,363.7c-0.4,0-0.5-0.2-0.5-0.5v-11.8c0-0.4,0.2-0.5,0.5-0.5h4.8c1.7,0,2.9,0.4,3.6,1.1
			c0.8,0.8,1.1,2,1.1,3.6v3.4c0,1.7-0.4,2.9-1.1,3.6c-0.8,0.8-2,1.1-3.6,1.1H343.7z M344.2,362.7h4.3c0.9,0,1.6-0.1,2.2-0.4
			c0.5-0.2,0.9-0.6,1.2-1.2c0.2-0.5,0.4-1.3,0.4-2.2v-3.4c0-0.9-0.1-1.6-0.4-2.2c-0.2-0.5-0.6-0.9-1.2-1.2s-1.3-0.4-2.2-0.4h-4.3
			V362.7z"/>
		<path class="st1" d="M355.6,363.7c-0.3-0.1-0.4-0.4-0.3-0.7l5-11.7c0.1-0.3,0.3-0.4,0.6-0.4h0.1c0.3,0,0.5,0.1,0.6,0.4l5,11.7
			c0.1,0.3,0,0.6-0.3,0.7c-0.3,0.1-0.6,0-0.7-0.3l-1.3-3.1h-6.6l-1.3,3.1C356.1,363.7,355.9,363.8,355.6,363.7z M358,359.2h5.7
			l-2.8-6.7L358,359.2z"/>
		<path class="st1" d="M369.4,363.7c-0.4,0-0.5-0.2-0.5-0.5v-11.8c0-0.4,0.2-0.5,0.5-0.5h4.8c1.7,0,2.9,0.4,3.6,1.1
			c0.8,0.8,1.1,2,1.1,3.6v3.4c0,1.7-0.4,2.9-1.1,3.6c-0.8,0.8-2,1.1-3.6,1.1H369.4z M369.9,362.7h4.3c0.9,0,1.6-0.1,2.2-0.4
			c0.5-0.2,0.9-0.6,1.2-1.2c0.2-0.5,0.4-1.3,0.4-2.2v-3.4c0-0.9-0.1-1.6-0.4-2.2c-0.2-0.5-0.6-0.9-1.2-1.2s-1.3-0.4-2.2-0.4h-4.3
			V362.7z"/>
		<path class="st1" d="M388,363.7c-0.2,0-0.3,0-0.4-0.1c-0.1-0.1-0.1-0.2-0.1-0.4v-11.8c0-0.2,0-0.3,0.1-0.4
			c0.1-0.1,0.2-0.1,0.4-0.1c0.2,0,0.3,0,0.4,0.1s0.1,0.2,0.1,0.4v5.3h8.4v-5.3c0-0.2,0-0.3,0.1-0.4c0.1-0.1,0.2-0.1,0.4-0.1
			s0.3,0,0.4,0.1s0.1,0.2,0.1,0.4v11.8c0,0.2,0,0.3-0.1,0.4s-0.2,0.1-0.4,0.1s-0.3,0-0.4-0.1c-0.1-0.1-0.1-0.2-0.1-0.4v-5.5h-8.4
			v5.5c0,0.2,0,0.3-0.1,0.4S388.2,363.7,388,363.7z"/>
		<path class="st1" d="M402.2,363.7c-0.2,0-0.3,0-0.4-0.1c-0.1-0.1-0.1-0.2-0.1-0.4v-11.8c0-0.2,0-0.3,0.1-0.4
			c0.1-0.1,0.2-0.1,0.4-0.1c0.2,0,0.3,0,0.4,0.1s0.1,0.2,0.1,0.4v11.8c0,0.2,0,0.3-0.1,0.4S402.4,363.7,402.2,363.7z"/>
		<path class="st1" d="M409.8,363.7c-1.2,0-2.1-0.3-2.7-0.8s-0.9-1.4-0.9-2.5c0-0.2,0-0.3,0.1-0.4s0.2-0.1,0.4-0.1
			c0.2,0,0.3,0,0.4,0.1c0.1,0.1,0.1,0.2,0.2,0.4c0,0.8,0.2,1.4,0.6,1.8c0.4,0.3,1,0.5,1.9,0.5h2.9c0.9,0,1.6-0.2,2-0.6
			c0.4-0.4,0.6-1,0.6-2c0-0.9-0.2-1.6-0.6-2c-0.4-0.4-1-0.6-2-0.6h-2.7c-1.2,0-2-0.3-2.6-0.8c-0.5-0.5-0.8-1.4-0.8-2.6
			c0-1.2,0.3-2,0.8-2.6c0.5-0.5,1.4-0.8,2.6-0.8h2.8c1.1,0,2,0.2,2.5,0.8c0.5,0.5,0.8,1.3,0.9,2.4c0,0.2,0,0.3-0.1,0.4
			c-0.1,0.1-0.2,0.1-0.4,0.1c-0.2,0-0.3,0-0.4-0.1c-0.1-0.1-0.1-0.2-0.2-0.4c0-0.8-0.2-1.3-0.6-1.6s-0.9-0.5-1.8-0.5h-2.8
			c-0.9,0-1.5,0.2-1.8,0.5c-0.3,0.3-0.5,1-0.5,1.8c0,0.9,0.2,1.5,0.5,1.8c0.3,0.3,1,0.5,1.8,0.5h2.7c1.2,0,2.1,0.3,2.7,0.9
			c0.6,0.6,0.9,1.5,0.9,2.7s-0.3,2.1-0.9,2.7c-0.6,0.6-1.5,0.9-2.7,0.9H409.8z"/>
		<path class="st1" d="M420.3,363.7c-0.4,0-0.5-0.2-0.5-0.5v-11.8c0-0.4,0.2-0.5,0.5-0.5h4.7c1.1,0,2,0.3,2.6,0.9s0.9,1.5,0.9,2.6
			v0.6c0,1.1-0.3,2-0.9,2.6c-0.6,0.6-1.4,0.9-2.6,0.9h-4.2v4.8C420.8,363.6,420.6,363.7,420.3,363.7z M420.8,357.3h4.2
			c0.8,0,1.5-0.2,1.8-0.6c0.4-0.4,0.6-1,0.6-1.8v-0.6c0-0.8-0.2-1.5-0.6-1.8c-0.4-0.4-1-0.6-1.8-0.6h-4.2V357.3z"/>
		<path class="st1" d="M428.7,363.7c-0.3-0.1-0.4-0.4-0.3-0.7l5-11.7c0.1-0.3,0.3-0.4,0.6-0.4h0.1c0.3,0,0.5,0.1,0.6,0.4l5,11.7
			c0.1,0.3,0,0.6-0.3,0.7c-0.3,0.1-0.6,0-0.7-0.3l-1.3-3.1h-6.6l-1.3,3.1C429.3,363.7,429.1,363.8,428.7,363.7z M431.2,359.2h5.7
			l-2.8-6.7L431.2,359.2z"/>
		<path class="st1" d="M442.6,363.7c-0.4,0-0.5-0.2-0.5-0.5v-11.8c0-0.4,0.2-0.5,0.5-0.5c0.2,0,0.4,0.1,0.5,0.3l8.5,10.9h-0.2v-10.7
			c0-0.4,0.2-0.5,0.5-0.5c0.3,0,0.5,0.2,0.5,0.5v11.8c0,0.4-0.2,0.5-0.5,0.5c-0.2,0-0.4-0.1-0.5-0.3l-8.5-10.9h0.2v10.7
			C443.1,363.6,442.9,363.7,442.6,363.7z"/>
		<path class="st1" d="M460,363.7c-1.4,0-2.5-0.3-3.2-1c-0.7-0.7-1-1.7-1-3.2V355c0-1.5,0.3-2.5,1-3.2c0.7-0.7,1.7-1,3.2-1h2.4
			c1.4,0,2.5,0.3,3.2,1c0.7,0.7,1,1.7,1,3.2v4.5c0,1.4-0.3,2.5-1,3.2c-0.7,0.7-1.7,1-3.2,1H460z M460,362.7h2.4
			c0.8,0,1.4-0.1,1.8-0.3c0.5-0.2,0.8-0.5,1-1c0.2-0.5,0.3-1.1,0.3-1.8V355c0-0.8-0.1-1.4-0.3-1.8s-0.5-0.8-1-1
			c-0.5-0.2-1.1-0.3-1.8-0.3H460c-0.8,0-1.4,0.1-1.8,0.3s-0.8,0.5-1,1c-0.2,0.5-0.3,1.1-0.3,1.8v4.6c0,0.8,0.1,1.4,0.3,1.8
			c0.2,0.5,0.5,0.8,1,1S459.2,362.7,460,362.7z"/>
		<path class="st1" d="M470.6,363.7c-0.2,0-0.3,0-0.4-0.1s-0.1-0.2-0.1-0.4v-11.8c0-0.2,0-0.3,0.1-0.4s0.2-0.1,0.4-0.1
			c0.2,0,0.3,0,0.4,0.1c0.1,0.1,0.1,0.2,0.1,0.4v5.3h8.4v-5.3c0-0.2,0-0.3,0.1-0.4c0.1-0.1,0.2-0.1,0.4-0.1s0.3,0,0.4,0.1
			s0.1,0.2,0.1,0.4v11.8c0,0.2,0,0.3-0.1,0.4s-0.2,0.1-0.4,0.1s-0.3,0-0.4-0.1c-0.1-0.1-0.1-0.2-0.1-0.4v-5.5h-8.4v5.5
			c0,0.2,0,0.3-0.1,0.4C470.9,363.7,470.7,363.7,470.6,363.7z"/>
		<path class="st1" d="M483.3,363.7c-0.3-0.1-0.4-0.4-0.3-0.7l5-11.7c0.1-0.3,0.3-0.4,0.6-0.4h0.1c0.3,0,0.5,0.1,0.6,0.4l5,11.7
			c0.1,0.3,0,0.6-0.3,0.7c-0.3,0.1-0.6,0-0.7-0.3l-1.3-3.1h-6.6l-1.3,3.1C483.8,363.7,483.6,363.8,483.3,363.7z M485.7,359.2h5.7
			l-2.8-6.7L485.7,359.2z"/>
		<path class="st1" d="M497.1,363.7c-0.4,0-0.5-0.2-0.5-0.5v-11.8c0-0.4,0.2-0.5,0.5-0.5h5.2c1,0,1.7,0.2,2.2,0.7
			c0.5,0.5,0.8,1.2,0.8,2.2v0.5c0,1-0.3,1.8-1,2.2c1.2,0.5,1.8,1.5,1.8,3.1v0.6c0,1.1-0.3,2-0.9,2.6c-0.6,0.6-1.4,0.9-2.6,0.9H497.1
			z M497.6,356.2h4.8c0.6,0,1.1-0.2,1.3-0.5c0.3-0.3,0.4-0.8,0.4-1.4v-0.5c0-0.7-0.2-1.1-0.5-1.4c-0.3-0.3-0.8-0.4-1.5-0.4h-4.7
			V356.2z M497.6,362.7h5c0.8,0,1.5-0.2,1.8-0.6s0.6-1,0.6-1.8v-0.6c0-0.8-0.2-1.4-0.6-1.8c-0.4-0.4-1-0.6-1.8-0.6h-5V362.7z"/>
		<path class="st1" d="M509.5,363.7c-0.4,0-0.5-0.2-0.5-0.5v-11.8c0-0.4,0.2-0.5,0.5-0.5c0.3,0,0.5,0.2,0.5,0.5v11.3h6.1
			c0.4,0,0.5,0.2,0.5,0.5c0,0.4-0.2,0.5-0.5,0.5H509.5z"/>
		<path class="st1" d="M518,363.7c-0.3-0.1-0.4-0.4-0.3-0.7l5-11.7c0.1-0.3,0.3-0.4,0.6-0.4h0.1c0.3,0,0.5,0.1,0.6,0.4l5,11.7
			c0.1,0.3,0,0.6-0.3,0.7c-0.3,0.1-0.6,0-0.7-0.3l-1.3-3.1H520l-1.3,3.1C518.5,363.7,518.3,363.8,518,363.7z M520.4,359.2h5.7
			l-2.8-6.7L520.4,359.2z"/>
		<path class="st1" d="M531.8,363.7c-0.4,0-0.5-0.2-0.5-0.5v-11.8c0-0.4,0.2-0.5,0.5-0.5c0.2,0,0.4,0.1,0.5,0.3l8.5,10.9h-0.2v-10.7
			c0-0.4,0.2-0.5,0.5-0.5c0.3,0,0.5,0.2,0.5,0.5v11.8c0,0.4-0.2,0.5-0.5,0.5c-0.2,0-0.4-0.1-0.5-0.3l-8.5-10.9h0.2v10.7
			C532.3,363.6,532.1,363.7,531.8,363.7z"/>
		<path class="st1" d="M549.2,363.8c-0.2,0-0.3,0-0.4-0.1c-0.1-0.1-0.1-0.2-0.1-0.4v-11.3h-4.2c-0.2,0-0.3,0-0.4-0.1
			c-0.1-0.1-0.1-0.2-0.1-0.4c0-0.2,0-0.3,0.1-0.4c0.1-0.1,0.2-0.1,0.4-0.1h9.6c0.2,0,0.3,0,0.4,0.1c0.1,0.1,0.1,0.2,0.1,0.4
			c0,0.2,0,0.3-0.1,0.4c-0.1,0.1-0.2,0.1-0.4,0.1h-4.3v11.3c0,0.2,0,0.3-0.1,0.4C549.4,363.7,549.3,363.8,549.2,363.8z"/>
		<path class="st1" d="M557.2,363.7c-0.4,0-0.5-0.2-0.5-0.5v-11.8c0-0.4,0.2-0.5,0.5-0.5h7.5c0.4,0,0.5,0.2,0.5,0.5
			c0,0.4-0.2,0.5-0.5,0.5h-7v4.8h4.6c0.4,0,0.5,0.2,0.5,0.5c0,0.4-0.2,0.5-0.5,0.5h-4.6v5h7c0.4,0,0.5,0.2,0.5,0.5
			c0,0.4-0.2,0.5-0.5,0.5H557.2z"/>
		<path class="st1" d="M573.5,363.7c-0.4,0-0.5-0.2-0.5-0.5v-11.8c0-0.4,0.2-0.5,0.5-0.5h4.8c1.7,0,2.9,0.4,3.6,1.1s1.1,2,1.1,3.6
			v3.4c0,1.7-0.4,2.9-1.1,3.6s-2,1.1-3.6,1.1H573.5z M574,362.7h4.3c0.9,0,1.6-0.1,2.2-0.4c0.5-0.2,0.9-0.6,1.2-1.2
			c0.2-0.5,0.4-1.3,0.4-2.2v-3.4c0-0.9-0.1-1.6-0.4-2.2c-0.2-0.5-0.6-0.9-1.2-1.2c-0.5-0.2-1.3-0.4-2.2-0.4H574V362.7z"/>
		<path class="st1" d="M587.1,363.7c-0.4,0-0.5-0.2-0.5-0.5v-11.8c0-0.4,0.2-0.5,0.5-0.5h7.5c0.4,0,0.5,0.2,0.5,0.5
			c0,0.4-0.2,0.5-0.5,0.5h-7v4.8h4.6c0.4,0,0.5,0.2,0.5,0.5c0,0.4-0.2,0.5-0.5,0.5h-4.6v5h7c0.4,0,0.5,0.2,0.5,0.5
			c0,0.4-0.2,0.5-0.5,0.5H587.1z"/>
		<path class="st1" d="M606.1,363.7c-1.2,0-2.1-0.3-2.7-0.8c-0.6-0.5-0.9-1.4-0.9-2.5c0-0.2,0-0.3,0.1-0.4s0.2-0.1,0.4-0.1
			c0.2,0,0.3,0,0.4,0.1c0.1,0.1,0.1,0.2,0.2,0.4c0,0.8,0.2,1.4,0.6,1.8c0.4,0.3,1,0.5,1.9,0.5h2.9c0.9,0,1.6-0.2,2-0.6
			c0.4-0.4,0.6-1,0.6-2c0-0.9-0.2-1.6-0.6-2c-0.4-0.4-1-0.6-2-0.6h-2.7c-1.2,0-2-0.3-2.6-0.8c-0.5-0.5-0.8-1.4-0.8-2.6
			c0-1.2,0.3-2,0.8-2.6c0.5-0.5,1.4-0.8,2.6-0.8h2.8c1.1,0,2,0.2,2.5,0.8s0.8,1.3,0.9,2.4c0,0.2,0,0.3-0.1,0.4s-0.2,0.1-0.4,0.1
			c-0.2,0-0.3,0-0.4-0.1c-0.1-0.1-0.1-0.2-0.2-0.4c0-0.8-0.2-1.3-0.6-1.6s-0.9-0.5-1.8-0.5h-2.8c-0.9,0-1.5,0.2-1.8,0.5
			c-0.3,0.3-0.5,1-0.5,1.8c0,0.9,0.2,1.5,0.5,1.8c0.3,0.3,1,0.5,1.8,0.5h2.7c1.2,0,2.1,0.3,2.7,0.9c0.6,0.6,0.9,1.5,0.9,2.7
			s-0.3,2.1-0.9,2.7c-0.6,0.6-1.5,0.9-2.7,0.9H606.1z"/>
		<path class="st1" d="M618.8,363.8c-0.2,0-0.3,0-0.4-0.1c-0.1-0.1-0.1-0.2-0.1-0.4v-11.3H614c-0.2,0-0.3,0-0.4-0.1
			c-0.1-0.1-0.1-0.2-0.1-0.4c0-0.2,0-0.3,0.1-0.4s0.2-0.1,0.4-0.1h9.6c0.2,0,0.3,0,0.4,0.1c0.1,0.1,0.1,0.2,0.1,0.4
			c0,0.2,0,0.3-0.1,0.4c-0.1,0.1-0.2,0.1-0.4,0.1h-4.3v11.3c0,0.2,0,0.3-0.1,0.4S619,363.8,618.8,363.8z"/>
		<path class="st1" d="M635.1,363.8c-0.1,0.1-0.3,0.1-0.4,0.1c-0.1,0-0.2-0.1-0.3-0.2l-3.3-5.2h-3.7v4.8c0,0.4-0.2,0.5-0.5,0.5
			c-0.4,0-0.5-0.2-0.5-0.5v-11.8c0-0.4,0.2-0.5,0.5-0.5h4.7c1.1,0,2,0.3,2.6,0.9s0.9,1.5,0.9,2.6v0.6c0,1-0.2,1.8-0.7,2.4
			c-0.5,0.6-1.1,0.9-2,1.1l3,4.7C635.4,363.4,635.4,363.6,635.1,363.8z M627.4,357.3h4.2c0.8,0,1.5-0.2,1.8-0.6
			c0.4-0.4,0.6-1,0.6-1.8v-0.6c0-0.8-0.2-1.5-0.6-1.8c-0.4-0.4-1-0.6-1.8-0.6h-4.2V357.3z"/>
		<path class="st1" d="M638.7,363.7c-0.4,0-0.5-0.2-0.5-0.5v-11.8c0-0.4,0.2-0.5,0.5-0.5h7.5c0.4,0,0.5,0.2,0.5,0.5
			c0,0.4-0.2,0.5-0.5,0.5h-7v4.8h4.6c0.4,0,0.5,0.2,0.5,0.5c0,0.4-0.2,0.5-0.5,0.5h-4.6v5h7c0.4,0,0.5,0.2,0.5,0.5
			c0,0.4-0.2,0.5-0.5,0.5H638.7z"/>
		<path class="st1" d="M648.4,363.7c-0.3-0.1-0.4-0.4-0.3-0.7l5-11.7c0.1-0.3,0.3-0.4,0.6-0.4h0.1c0.3,0,0.5,0.1,0.6,0.4l5,11.7
			c0.1,0.3,0,0.6-0.3,0.7c-0.3,0.1-0.6,0-0.7-0.3l-1.3-3.1h-6.5l-1.3,3.1C649,363.7,648.7,363.8,648.4,363.7z M650.9,359.2h5.7
			l-2.8-6.7L650.9,359.2z"/>
		<path class="st1" d="M662.3,363.7c-0.4,0-0.5-0.2-0.5-0.5v-11.8c0-0.4,0.2-0.5,0.5-0.5c0.3,0,0.5,0.1,0.6,0.3l5,7.6l-0.2,0l5-7.6
			c0.1-0.2,0.4-0.3,0.6-0.3c0.3,0,0.5,0.2,0.5,0.5v11.8c0,0.4-0.2,0.5-0.5,0.5c-0.4,0-0.5-0.2-0.5-0.5v-10.8l0.3,0.1l-4.6,7
			c-0.1,0.2-0.4,0.3-0.6,0.3c-0.2,0-0.4-0.1-0.6-0.3l-4.6-7l0.3,0.1v10.6C662.8,363.6,662.6,363.7,662.3,363.7z"/>
		<path class="st1" d="M677.9,363.7c-0.2,0-0.3,0-0.4-0.1c-0.1-0.1-0.1-0.2-0.1-0.4v-11.8c0-0.2,0-0.3,0.1-0.4
			c0.1-0.1,0.2-0.1,0.4-0.1c0.2,0,0.3,0,0.4,0.1c0.1,0.1,0.1,0.2,0.1,0.4v11.8c0,0.2,0,0.3-0.1,0.4
			C678.2,363.7,678.1,363.7,677.9,363.7z"/>
		<path class="st1" d="M682.7,363.7c-0.4,0-0.5-0.2-0.5-0.5v-11.8c0-0.4,0.2-0.5,0.5-0.5c0.2,0,0.4,0.1,0.5,0.3l8.5,10.9h-0.2v-10.7
			c0-0.4,0.2-0.5,0.5-0.5c0.3,0,0.5,0.2,0.5,0.5v11.8c0,0.4-0.2,0.5-0.5,0.5c-0.2,0-0.4-0.1-0.5-0.3l-8.5-10.9h0.2v10.7
			C683.2,363.6,683.1,363.7,682.7,363.7z"/>
		<path class="st1" d="M700.2,363.7c-1.4,0-2.5-0.3-3.2-1c-0.7-0.7-1-1.7-1-3.2V355c0-1.5,0.3-2.5,1-3.2c0.7-0.7,1.7-1,3.2-1h2.4
			c1.2,0,2.1,0.3,2.7,0.8c0.6,0.5,0.9,1.3,1,2.5c0,0.2,0,0.3-0.1,0.4s-0.2,0.1-0.4,0.1c-0.3,0-0.5-0.2-0.6-0.5
			c0-0.8-0.3-1.4-0.7-1.7c-0.4-0.3-1.1-0.5-2-0.5h-2.4c-0.8,0-1.4,0.1-1.8,0.3c-0.5,0.2-0.8,0.5-1,1c-0.2,0.5-0.3,1.1-0.3,1.8v4.5
			c0,0.8,0.1,1.4,0.3,1.8c0.2,0.5,0.5,0.8,1,1s1.1,0.3,1.8,0.3h2.4c0.7,0,1.2-0.1,1.6-0.2s0.7-0.4,0.8-0.8s0.2-0.9,0.2-1.6v-1.2
			l-2.2,0c-0.3,0-0.5-0.2-0.5-0.5c0-0.3,0.2-0.5,0.5-0.5l2.7,0c0.3,0,0.5,0.2,0.5,0.5v1.8c0,1.3-0.3,2.3-0.9,2.9
			c-0.6,0.6-1.5,0.9-2.9,0.9H700.2z"/>
	</g>
</g>
</svg>
